<svg width="148" height="148" viewBox="0 0 148 148" fill="none" xmlns="http://www.w3.org/2000/svg">
<g filter="url(#filter0_dd_9666_10466)">
<g clip-path="url(#clip0_9666_10466)">
<rect x="4" y="4" width="140" height="140" rx="70" fill="#FEFEFE"/>
<path d="M53.651 125.953C50.403 126.453 49.2786 124.912 47.4048 123.767C52.4018 122.83 55.5249 121.893 58.648 118.145C59.9282 116.609 61.4588 112.211 61.4588 107.527C61.4588 103.871 60.2095 96.908 54.5879 83.791C49.824 72.6751 53.4379 61.4376 55.1973 56.6825C55.3259 55.5424 55.5347 54.736 55.8372 54.4335C56.2674 54.0032 55.8665 54.874 55.1973 56.6825C54.662 61.428 55.515 71.9542 56.7741 75.9832C58.2646 80.7527 62.9245 86.9282 65.8311 95.9711C68.6419 104.716 68.6419 113.773 65.8311 118.145C62.0359 124.049 57.711 125.328 53.651 125.953Z" fill="#DCDCDC" stroke="#DCDCDC" stroke-width="0.648148"/>
<path d="M85.5066 128.139C83.0081 128.888 75.3044 129.284 71.7649 129.388C73.9511 128.451 88.6297 126.265 96.7497 121.268C104.87 116.271 107.993 111.586 112.678 104.403C116.425 98.6568 118.611 85.6647 118.299 81.917C119.132 84.4155 120.173 88.4755 120.173 93.7848C120.173 99.0941 120.173 101.593 116.425 108.463C113.814 113.252 109.242 118.145 104.245 121.268C99.3618 124.32 88.6297 127.202 85.5066 128.139Z" fill="#DCDCDC"/>
<path d="M126.107 62.2414C128.499 58.9521 131.729 51.9351 133.915 47.2505C132.978 57.2444 130.792 70.3615 122.359 75.9831L120.173 67.863C121.631 66.8219 123.609 65.6768 126.107 62.2414Z" fill="#DCDCDC"/>
<path d="M53.3387 97.2204C47.7172 99.0942 43.553 97.949 38.6602 98.1572C41.7833 99.4065 46.6786 101.489 48.0295 101.905C52.0895 103.154 60.8342 104.403 60.8342 101.905C60.8342 100.406 59.1685 95.5547 58.3357 93.4727C58.3357 93.4727 57.0865 95.9711 53.3387 97.2204Z" fill="#DCDCDC"/>
<path d="M86.5935 65.7071C86.647 65.5677 86.7034 65.4525 86.7561 65.3645C86.7354 65.4585 86.6785 65.5738 86.5935 65.7071C86.33 66.3923 86.1332 67.6588 86.7561 69.1122C87.6931 71.2984 94.5636 75.3584 97.999 76.92C98.6236 77.2039 85.1946 76.2954 83.945 74.4215C82.9454 72.9224 83.4245 73.2764 82.3835 73.4846L79.885 75.9831C80.2308 74.3174 82.6924 71.1999 83.945 69.1122C84.7409 67.7857 86.1138 66.4592 86.5935 65.7071Z" fill="#DCDCDC"/>
<path d="M34.2876 121.581C36.0365 122.08 43.8653 123.142 47.0925 123.767C45.1144 122.934 39.4095 121.393 36.1614 120.644C32.1014 119.707 20.5459 114.71 18.0476 113.46C16.7985 114.085 15.2368 113.46 14.6122 114.085C13.9876 114.71 17.1107 116.896 18.0476 117.208C18.9845 117.52 32.1014 120.956 34.2876 121.581Z" fill="#DCDCDC"/>
<path d="M13.0505 92.848C13.0505 91.8486 14.0916 88.4756 14.6121 86.9141C15.2367 89.1002 22.0572 97.1598 23.6691 99.0942C25.2306 100.968 51.1524 121.893 50.5278 121.581C49.9032 121.268 38.0354 114.397 35.8492 112.524C34.5723 111.429 23.3568 103.779 21.1706 101.593C19.3902 99.8122 13.0505 94.0972 13.0505 92.848Z" fill="#DCDCDC"/>
<path d="M32.4138 92.2232L27.1045 81.917C27.9373 82.1252 30.7273 83.4785 31.4768 83.4785C32.2264 83.4785 34.0794 84.5196 34.9123 85.0401C35.4328 85.8729 36.6612 89.2875 37.4107 90.0371C38.1603 90.7866 37.7231 90.2453 37.4107 90.6617L32.4138 92.2232Z" fill="#DCDCDC"/>
<path d="M42.72 110.65C39.8051 106.277 36.5779 100.343 35.5369 97.845C37.0984 98.2614 39.2088 98.7061 40.5338 100.031C41.7831 101.28 42.4077 104.716 45.2185 111.274C45.6243 112.221 48.9662 118.249 50.5278 120.956C47.9252 117.729 44.2191 112.898 42.72 110.65Z" fill="#DCDCDC"/>
<path d="M87.0682 82.2295C85.8189 81.9796 84.4656 82.3336 83.9451 82.5418C84.882 83.2705 86.8183 84.7905 87.0682 85.0404C87.318 85.2902 89.879 86.3937 91.1282 86.9142L91.4405 85.3527C91.4405 84.8321 91.2531 83.7287 90.5036 83.4788C89.5667 83.1665 88.6297 82.5418 87.0682 82.2295Z" fill="#DCDCDC"/>
<path d="M73.6391 44.4398C70.6409 44.6898 69.6836 45.7932 69.2672 46.3137C68.9548 46.0012 69.704 44.8147 70.2037 43.8152C70.8283 42.5658 73.9514 42.2537 75.5129 42.2537C78.636 42.2537 81.6214 43.8953 82.3838 44.4398C84.5699 46.0014 84.8823 47.8753 85.1946 48.4999C85.5069 49.1245 85.8192 50.686 85.5069 50.9984C85.1946 51.3107 83.9452 50.9984 83.9452 50.686C83.9452 50.3737 83.6328 48.8122 82.0713 47.2506C80.5097 45.6891 77.3868 44.1274 73.6391 44.4398Z" fill="#DCDCDC"/>
<path d="M74.888 29.1366C76.1372 27.3877 80.6137 25.9094 82.6957 25.3889C83.1121 25.7012 82.9456 26.1385 81.4465 26.6382C79.5726 27.2628 74.888 30.3859 74.888 33.509C74.888 37.1124 74.9921 39.7552 75.8249 40.6921C74.3675 41.7332 70.5156 43.1906 70.5156 40.6921C70.5156 37.569 73.3264 31.3228 74.888 29.1366Z" fill="#DCDCDC"/>
<path d="M109.989 50.686C111.759 50.5819 116.61 49.1244 121.857 44.1275C127.104 39.1305 131.539 32.6761 133.1 30.0735C133.204 36.8402 133.163 50.686 132.163 51.9352C130.914 53.4968 134.974 46.0013 134.974 44.1275C134.974 42.2536 132.476 64.74 127.166 70.9862C122.919 75.9831 121.857 76.3995 121.857 75.9831" stroke="#141416" stroke-width="1.2963" stroke-linecap="round" stroke-linejoin="round"/>
<path d="M119.983 58.4939C122.17 57.1406 127.104 52.4351 129.353 44.44C131.601 36.4448 132.788 31.7393 133.1 30.386" stroke="#141416" stroke-width="1.2963" stroke-linecap="round" stroke-linejoin="round"/>
<path d="M23.1648 94.0969C28.0577 95.2421 39.0302 98.157 43.7773 100.655C48.5244 103.154 57.2066 103.57 60.9544 103.466" stroke="#141416" stroke-width="1.2963" stroke-linecap="round" stroke-linejoin="round"/>
<path d="M54.0835 82.5415C48.2537 86.3933 33.9083 94.097 23.1648 94.097" stroke="#141416" stroke-width="1.2963" stroke-linecap="round" stroke-linejoin="round"/>
<path d="M55.3329 93.4724C46.6923 94.4093 28.3492 95.9084 24.1018 94.4093" stroke="#141416" stroke-width="1.2963" stroke-linecap="round" stroke-linejoin="round"/>
<path d="M47.2127 97.5323C44.2978 97.8446 37.4061 98.157 33.1587 96.9077" stroke="#141416" stroke-width="1.2963" stroke-linecap="round" stroke-linejoin="round"/>
<path d="M46.7801 123.767C38.4518 122.309 24.7269 119.394 19.418 117.52C16.9191 116.638 13.4841 115.959 14.421 111.274C15.358 106.59 16.2939 103.154 17.8559 102.842C19.418 102.53 27.1202 109.409 31.5976 112.523C38.7808 117.52 45.9639 120.956 48.4624 121.58C50.4612 122.08 53.6675 121.789 55.0209 121.58" stroke="#141416" stroke-width="1.2963" stroke-linecap="round" stroke-linejoin="round"/>
<path d="M16.2941 103.779C14.7325 102.425 11.7968 99.0317 12.5463 96.2834C14.0451 84.5405 17.9599 78.6899 19.7299 77.2324C21.6038 78.4817 25.0392 87.2264 25.9762 88.7879C26.9062 90.338 27.8009 91.8978 28.6662 93.4379M52.8349 122.517C52.3143 122.101 51.0235 121.143 50.0241 120.644C48.7748 120.019 42.9664 114.211 39.4055 110.65C36.4171 107.661 33.3949 101.966 29.9154 95.6801" stroke="#141416" stroke-width="1.2963" stroke-linecap="round" stroke-linejoin="round"/>
<path d="M40.5337 99.0942C42.3035 104.508 47.1505 117.083 51.8976 121.581" stroke="#141416" stroke-width="1.2963"/>
<path d="M22.4199 80.9802C25.4389 81.7089 33.7839 83.791 35.0331 85.0403C36.2824 86.2895 37.2193 89.3085 37.8439 90.3495" stroke="#141416" stroke-width="1.2963" stroke-linecap="round" stroke-linejoin="round"/>
<path d="M77.1949 129.388C63.4532 130.887 50.8567 126.057 46.2761 123.454C47.8377 122.621 52.2341 123.322 55.0208 121.58C60.0178 118.457 65.6394 111.274 57.5193 91.2861C49.3992 71.2983 52.5223 59.7428 56.2701 53.8089C59.5551 48.6076 70.9487 41.0041 81.5672 38.818C92.1858 36.6318 101.555 42.9673 106.552 47.2503C119.357 59.7428 122.48 75.046 123.105 85.6646C123.729 96.2831 115.817 110.441 115.297 110.962C104.991 124.391 94.3719 127.514 77.1949 129.388Z" stroke="#141416" stroke-width="1.2963" stroke-linecap="round" stroke-linejoin="round"/>
<path d="M29.0994 161.868C43.0492 149.688 72.7604 124.454 80.006 120.956" stroke="#141416" stroke-width="1.2963" stroke-linecap="round" stroke-linejoin="round"/>
<path d="M32.5349 163.118C40.3427 153.436 57.8321 133.199 65.3275 129.701" stroke="#141416" stroke-width="1.2963" stroke-linecap="round" stroke-linejoin="round"/>
<path d="M63.5765 49.7491C63.5765 48.8121 65.2827 43.856 65.4504 41.6763C65.7627 37.6162 64.5292 30.6869 63.5765 28.8716C63.5092 28.7433 63.4447 28.623 63.3838 28.512C64.3475 29.9727 66.4179 33.6114 66.9899 36.4808C67.3926 38.8182 67.7779 41.669 67.3926 43.5029C67.0651 45.0613 66.1433 47.2506 65.2064 48.4998L65.1957 48.5142C64.9066 48.8998 63.5765 50.674 63.5765 49.7491Z" fill="#DCDCDC"/>
<path d="M77.0741 39.131C75.135 39.6158 72.7017 41.9418 72.3894 41.9418C72.7017 41.0049 74.8879 39.1935 76.1371 38.194C77.6987 36.9447 78.6356 37.2571 79.8849 36.9448C81.1341 36.6325 84.5695 37.5695 85.5723 37.5695C86.2707 37.5695 90.8816 38.1941 91.1939 38.1941C91.5062 38.1941 90.8157 39.7556 89.8788 40.0679C88.9419 40.3802 88.6295 40.0679 86.1311 39.4433C83.6326 38.8187 79.5725 38.5064 77.0741 39.131Z" fill="#DCDCDC"/>
<path d="M90.3119 131.262C86.9806 136.467 80.2597 148.127 81.7588 150.625" stroke="#141416" stroke-width="1.2963" stroke-linecap="round" stroke-linejoin="round"/>
<path d="M95.3077 128.451C91.1436 134.385 82.6904 146.815 82.1907 149.064C81.691 151.313 81.9825 151.25 82.1907 150.938" stroke="#141416" stroke-width="1.2963" stroke-linecap="round" stroke-linejoin="round"/>
<path d="M63.4544 49.437C64.0784 47.2508 65.3283 43.8153 65.3283 39.7554C65.3283 35.5888 63.4521 27.7358 62.5168 27.2629C60.2698 26.1268 67.7383 30.0737 69.0766 35.6953C70.6378 42.2538 69.4927 45.1688 69.0764 46.0016" stroke="#141416" stroke-width="1.2963" stroke-linecap="round" stroke-linejoin="round"/>
<path d="M70.9492 42.5659C72.1313 41.215 74.0608 39.0407 76.7623 37.5691M76.7623 37.5691C77.3917 37.2262 78.7822 36.5501 79.3816 36.3197C84.2578 34.446 87.8226 34.9176 89.0632 35.3828C91.5617 36.3197 91.5617 38.1936 90.3125 38.1936C89.0632 38.1936 87.4978 37.2523 85.6278 37.1324C82.6962 36.9444 78.6331 36.9858 76.7623 37.5691Z" stroke="#141416" stroke-width="1.2963" stroke-linecap="round" stroke-linejoin="round"/>
<path d="M69.8914 43.5029C70.2037 40.4839 71.6638 33.6634 74.0722 30.3859C76.1376 27.5751 79.573 26.0135 82.5046 25.3889" stroke="#141416" stroke-width="1.2963" stroke-linecap="round" stroke-linejoin="round"/>
<path d="M70.6367 42.2535C71.4695 40.1714 73.4559 36.7692 76.1375 34.758C77.3868 33.8211 80.1976 32.5718 81.5676 32.2595" stroke="#141416" stroke-width="1.2963" stroke-linecap="round" stroke-linejoin="round"/>
<path d="M79.0695 48.187C81.3597 49.6445 85.9403 52.1221 85.9403 50.3732C85.9403 48.187 82.8172 42.8777 75.9464 42.2531C70.4497 41.7534 69.5792 44.7518 68.9546 46.0011" stroke="#141416" stroke-width="1.2963" stroke-linecap="round" stroke-linejoin="round"/>
<path d="M67.5133 56.9323C69.2623 54.9335 71.1569 53.601 71.8857 53.1846C70.4282 55.0584 67.5133 59.2434 67.5133 60.9923C67.5133 62.7533 65.8385 62.4879 65.5351 61.9916C65.4618 61.8717 65.4685 61.7384 65.5981 61.617C65.8934 59.9691 66.47 58.1247 67.5133 56.9323Z" fill="#141416"/>
<path d="M93.1241 47.5628C90.6256 46.0638 88.1271 45.689 87.1902 45.689C89.5679 45.0644 93.5613 46.8133 95.3103 47.5628C97.4964 48.4998 97.4964 49.749 97.4964 50.686C97.4964 51.6229 96.2472 49.4367 93.1241 47.5628Z" fill="#141416"/>
<path d="M78.1333 49.1245C80.0072 50.7902 83.8174 55.3707 84.0672 60.3677" stroke="#141416" stroke-width="1.2963" stroke-linecap="round" stroke-linejoin="round"/>
<path d="M96.2473 84.4155L93.7488 92.5356" stroke="#141416" stroke-width="1.2963" stroke-linecap="round" stroke-linejoin="round"/>
<path d="M97.4964 86.2896C96.8718 87.747 95.6226 90.7868 95.6226 91.2865" stroke="#141416" stroke-width="1.2963" stroke-linecap="round" stroke-linejoin="round"/>
<path d="M84.3792 82.2295C86.1489 82.1254 90.4421 82.6043 91.4415 84.1034" stroke="#141416" stroke-width="1.2963" stroke-linecap="round" stroke-linejoin="round"/>
<path d="M79.3821 77.5449C79.4862 76.8161 79.8818 75.1088 80.6313 74.1095C81.5683 72.8602 86.2529 64.7401 87.5022 64.1155C88.7514 63.4909 92.4991 65.9894 93.7484 66.614C94.9976 67.2386 97.4961 67.5509 98.7453 68.1756C99.7447 68.6753 98.7453 74.63 98.1207 77.5449C93.3319 77.0244 83.7544 75.6085 83.7544 74.1095C83.7544 72.2356 79.3821 76.6079 79.3821 77.5449Z" stroke="#141416" stroke-width="1.2963" stroke-linecap="round" stroke-linejoin="round"/>
<path d="M83.1299 75.9832C82.4012 77.1283 81.6309 80.1057 84.3792 82.854C87.1275 85.6023 90.1049 86.7058 91.25 86.914C91.4582 84.2073 92.3119 78.7939 94.0608 78.7939" stroke="#141416" stroke-width="1.2963" stroke-linecap="round" stroke-linejoin="round"/>
<ellipse cx="96.6844" cy="60.7633" rx="2.81079" ry="3.74773" transform="rotate(-18.8872 96.6844 60.7633)" fill="#141416"/>
<ellipse cx="97.3907" cy="60.4809" rx="1.05653" ry="1.40871" transform="rotate(-18.8872 97.3907 60.4809)" fill="#FAFAFA"/>
<ellipse cx="76.0704" cy="68.2589" rx="2.81079" ry="3.74773" transform="rotate(-18.8872 76.0704 68.2589)" fill="#141416"/>
<ellipse cx="76.7777" cy="67.9765" rx="1.05653" ry="1.40871" transform="rotate(-18.8872 76.7777 67.9765)" fill="#FAFAFA"/>
</g>
<rect x="4.64815" y="4.64815" width="138.704" height="138.704" rx="69.3519" stroke="#1C851C" stroke-width="1.2963"/>
</g>
<defs>
<filter id="filter0_dd_9666_10466" x="0" y="0" width="148" height="148" filterUnits="userSpaceOnUse" color-interpolation-filters="sRGB">
<feFlood flood-opacity="0" result="BackgroundImageFix"/>
<feColorMatrix in="SourceAlpha" type="matrix" values="0 0 0 0 0 0 0 0 0 0 0 0 0 0 0 0 0 0 127 0" result="hardAlpha"/>
<feMorphology radius="4" operator="dilate" in="SourceAlpha" result="effect1_dropShadow_9666_10466"/>
<feOffset/>
<feColorMatrix type="matrix" values="0 0 0 0 0.861944 0 0 0 0 0.966667 0 0 0 0 0.861944 0 0 0 1 0"/>
<feBlend mode="normal" in2="BackgroundImageFix" result="effect1_dropShadow_9666_10466"/>
<feColorMatrix in="SourceAlpha" type="matrix" values="0 0 0 0 0 0 0 0 0 0 0 0 0 0 0 0 0 0 127 0" result="hardAlpha"/>
<feOffset dy="1"/>
<feGaussianBlur stdDeviation="1"/>
<feColorMatrix type="matrix" values="0 0 0 0 0.0392157 0 0 0 0 0.0496732 0 0 0 0 0.0705882 0 0 0 0.05 0"/>
<feBlend mode="normal" in2="effect1_dropShadow_9666_10466" result="effect2_dropShadow_9666_10466"/>
<feBlend mode="normal" in="SourceGraphic" in2="effect2_dropShadow_9666_10466" result="shape"/>
</filter>
<clipPath id="clip0_9666_10466">
<rect x="4" y="4" width="140" height="140" rx="70" fill="white"/>
</clipPath>
</defs>
</svg>
