<svg width="134" height="76" viewBox="0 0 134 76" fill="none" xmlns="http://www.w3.org/2000/svg">
<path d="M36.5657 35.2925C17.4943 40.0826 14.9723 29.2494 14.1224 25.2948C8.95834 37.8536 9.40206 43.4805 26.4219 46.8191" stroke="#228B22" stroke-width="1.13333" stroke-linecap="round"/>
<path d="M23.6593 49.3147C23.6593 50.021 22.9725 50.7239 21.9528 50.7239C20.9332 50.7239 20.2464 50.021 20.2464 49.3147C20.2464 48.6084 20.9332 47.9055 21.9528 47.9055C22.9725 47.9055 23.6593 48.6084 23.6593 49.3147Z" fill="#228B22" fill-opacity="0.266667" stroke="#228B22" stroke-width="1.13333"/>
<path d="M44.1215 63.4366C32.3857 74.0826 19.4305 73.323 11.5888 67.3075C7.39813 64.0927 4.65873 59.3743 4.31908 54.0652C3.98821 48.8934 5.93287 43.1283 11.0921 37.616C11.2778 38.9144 11.5343 39.9285 11.9752 40.8136C12.4483 41.7631 13.1237 42.5452 14.1117 43.3699C13.5065 44.1043 12.7566 45.2472 12.1461 46.6157C11.4926 48.0805 10.9912 49.8209 11.0095 51.6089L7.50443 53.1819L6.90502 53.4509L7.51206 53.7022L11.0627 55.172C13.6675 63.8525 21.4683 66.6713 29.1185 66.7247C32.967 66.7516 36.8013 66.0815 39.9693 65.0953C41.5335 64.6084 42.9461 64.0411 44.1215 63.4366Z" fill="#F8C23D" stroke="#228B22" stroke-width="0.566666"/>
<path d="M39.2188 11.6541V9.95414H37.5188H16.6766V5.94463H45.0061V32.5654C45.0061 34.5159 44.8374 36.75 44.2574 38.5203C43.8634 39.7229 43.3611 40.4978 42.7591 40.9307C41.9743 39.7387 41.2222 38.721 40.4939 37.7355L40.4822 37.7196C39.7382 36.7129 39.019 35.739 38.2792 34.6118C38.9306 33.6205 39.147 32.5224 39.2152 31.4745C39.2585 30.8086 39.2445 30.0316 39.2312 29.2887C39.2249 28.9397 39.2188 28.5982 39.2188 28.2793V11.6541Z" fill="#074906" stroke="#074906" stroke-width="3.39999" stroke-linecap="round"/>
<path d="M39.2188 11.5135V9.81352H37.5188H16.6766V5.804H45.0061V32.4248C45.0061 34.3753 44.8374 36.6094 44.2574 38.3797C43.8634 39.5823 43.3611 40.3572 42.7591 40.79C41.9743 39.5981 41.2222 38.5804 40.4939 37.5949L40.4822 37.579C39.7382 36.5723 39.019 35.5983 38.2792 34.4712C38.9306 33.4799 39.147 32.3818 39.2152 31.3339C39.2585 30.668 39.2445 29.8909 39.2312 29.148C39.2249 28.799 39.2188 28.4576 39.2188 28.1387V11.5135Z" fill="#074906" stroke="#074906" stroke-width="3.39999" stroke-linecap="round"/>
<path d="M39.2188 11.4447V9.74467H37.5188H16.6766V5.73515H45.0061V32.356C45.0061 34.3065 44.8374 36.5405 44.2574 38.3108C43.8634 39.5134 43.3611 40.2883 42.7591 40.7212C41.9743 39.5292 41.2222 38.5115 40.4939 37.5261L40.4822 37.5101C39.7382 36.5035 39.019 35.5295 38.2792 34.4024C38.9306 33.4111 39.147 32.3129 39.2152 31.265C39.2585 30.5991 39.2445 29.8221 39.2312 29.0792C39.2249 28.7302 39.2188 28.3887 39.2188 28.0698V11.4447Z" fill="#074906" stroke="#074906" stroke-width="3.39999" stroke-linecap="round"/>
<path d="M39.2188 11.4095V9.70952H37.5188H16.6766V5.7H45.0061V32.3208C45.0061 34.2713 44.8374 36.5054 44.2574 38.2757C43.8634 39.4783 43.3611 40.2531 42.7591 40.686C41.9743 39.4941 41.2222 38.4764 40.4939 37.4909L40.4822 37.475C39.7382 36.4683 39.019 35.4943 38.2792 34.3672C38.9306 33.3759 39.147 32.2778 39.2152 31.2299C39.2585 30.564 39.2445 29.7869 39.2312 29.044C39.2249 28.695 39.2188 28.3536 39.2188 28.0347V11.4095Z" fill="#074906" stroke="#074906" stroke-width="3.39999" stroke-linecap="round"/>
<path d="M39.2188 12.87V11.17H37.5188H16.6766V7.16045H45.0061V33.7813C45.0061 35.7317 44.8374 37.9658 44.2574 39.7361C43.8634 40.9387 43.3611 41.7136 42.7591 42.1465C41.9743 40.9545 41.2222 39.9368 40.4939 38.9514L40.4822 38.9354C39.7382 37.9288 39.019 36.9548 38.2792 35.8277C38.9306 34.8364 39.147 33.7382 39.2152 32.6903C39.2585 32.0244 39.2445 31.2474 39.2312 30.5045C39.2249 30.1555 39.2188 29.814 39.2188 29.4951V12.87Z" fill="#074906" stroke="#074906" stroke-width="3.39999" stroke-linecap="round"/>
<path d="M39.2188 12.87V11.17H37.5188H16.6766V7.16045H45.0061V33.7813C45.0061 35.7317 44.8374 37.9658 44.2574 39.7361C43.8634 40.9387 43.3611 41.7136 42.7591 42.1465C41.9743 40.9545 41.2222 39.9368 40.4939 38.9513L40.4822 38.9354C39.7382 37.9288 39.019 36.9548 38.2792 35.8277C38.9306 34.8364 39.147 33.7382 39.2152 32.6903C39.2585 32.0244 39.2445 31.2474 39.2312 30.5045C39.2249 30.1555 39.2188 29.814 39.2188 29.4951V12.87Z" fill="#228B22" stroke="#228B22" stroke-width="3.39999" stroke-linecap="round"/>
<path d="M31.7841 36.8149L31.7265 36.8039L31.6693 36.8167C28.2006 37.5886 24.7802 36.91 22.0599 35.6636C20.7004 35.0408 19.5215 34.2787 18.6043 33.4919C17.6835 32.702 17.0413 31.9002 16.7345 31.2034C16.6337 30.9744 16.6811 30.7148 16.986 30.4001C17.2964 30.0797 17.8337 29.7536 18.5698 29.4564C20.035 28.8648 22.1923 28.4255 24.5924 28.3323C29.4088 28.145 35.0636 29.3529 38.0403 33.3343C38.0692 33.373 38.0926 33.4113 38.1136 33.4544C38.3403 33.918 39.4605 36.2246 40.6124 38.8621C41.466 40.8166 42.3287 42.9342 42.8621 44.6164C41.4296 42.5608 40.134 40.9773 38.6432 39.7665C36.8248 38.2895 34.7327 37.3796 31.7841 36.8149Z" fill="#F8C23D" stroke="#228B22" stroke-width="0.566666"/>
<path d="M46.7948 49.3363C48.9963 47.7141 50.1001 46.4949 51.6002 43.213C53.7156 49.2828 53.1151 52.5221 48.4191 57.9666" stroke="#228B22" stroke-width="1.7" stroke-linecap="round"/>
<path d="M57.3203 18.3382H56.8953V18.7632V29.8628C56.8953 32.8219 57.7039 35.4861 59.4248 37.4159C61.1527 39.3534 63.7549 40.4994 67.2325 40.4994C70.71 40.4994 73.3122 39.3534 75.0401 37.4159C76.761 35.4861 77.5696 32.8219 77.5696 29.8628V18.7632V18.3382H77.1446H73.2398H72.8148V18.7632V29.8628C72.8148 31.8906 72.3399 33.3998 71.4408 34.3995C70.5489 35.3911 69.1778 35.9495 67.2325 35.9495C65.4469 35.9495 64.0678 35.3891 63.132 34.3831C62.1924 33.3731 61.6501 31.8604 61.6501 29.8628V18.7632V18.3382H61.2251H57.3203ZM80.0166 39.4824V39.9074H80.4416H84.3464H84.7714V39.4824V26.5636L96.19 39.7605L96.3171 39.9074H96.5114H99.6652H100.09V39.4824V18.7632V18.3382H99.6652H95.7604H95.3354V18.7632V31.6819L83.9169 18.4851L83.7898 18.3382H83.5955H80.4416H80.0166V18.7632V39.4824ZM57.1957 71.1955V71.6205H57.6207H61.5255H61.9505V71.1955V60.3729H72.2141V71.1955V71.6205H72.6391H76.5439H76.9689V71.1955V50.4763V50.0513H76.5439H72.6391H72.2141V50.4763V55.971H61.9505V50.4763V50.0513H61.5255H57.6207H57.1957V50.4763V71.1955ZM79.7233 71.1955V71.6205H80.1483H84.0531H84.4781V71.1955V50.4763V50.0513H84.0531H80.1483H79.7233V50.4763V71.1955ZM87.2325 71.1955V71.6205H87.6575H91.5623H91.9873V71.1955V64.9245L97.9767 64.3904L102.314 71.4187L102.439 71.6205H102.676H107.181H107.941L107.544 70.973L102.984 63.5489C105.89 62.4361 107.606 60.0881 107.606 57.284V50.4763V50.0513H107.181H87.6575H87.2325V50.4763V71.1955ZM110.053 71.1955V71.6205H110.478H114.383H114.808V71.1955V64.925L122.83 64.2192C127.493 63.821 130.427 60.966 130.427 57.284V50.4763V50.0513H130.002H110.478H110.053V50.4763V71.1955ZM99.7845 59.8206L91.9873 60.5191V54.4531H102.852V57.136C102.852 58.1104 102.466 58.723 101.918 59.124C101.348 59.541 100.572 59.7501 99.7845 59.8206ZM122.606 59.8206L114.808 60.5191V54.4531H125.673V57.136C125.673 58.1104 125.287 58.723 124.739 59.124C124.169 59.541 123.393 59.7501 122.606 59.8206Z" fill="#074906" stroke="#074906" stroke-width="0.849999"/>
<path d="M56.0195 18.3382H55.5945V18.7632V29.8628C55.5945 32.8219 56.4031 35.4861 58.1241 37.4159C59.8519 39.3534 62.4541 40.4994 65.9317 40.4994C69.4093 40.4994 72.0114 39.3534 73.7393 37.4159C75.4603 35.4861 76.2689 32.8219 76.2689 29.8628V18.7632V18.3382H75.8439H71.9391H71.5141V18.7632V29.8628C71.5141 31.8906 71.0391 33.3998 70.14 34.3995C69.2482 35.3911 67.877 35.9495 65.9317 35.9495C64.1461 35.9495 62.767 35.3891 61.8312 34.3831C60.8916 33.3731 60.3493 31.8604 60.3493 29.8628V18.7632V18.3382H59.9243H56.0195ZM78.7159 39.4824V39.9074H79.1409H83.0457H83.4707V39.4824V26.5636L94.8892 39.7605L95.0163 39.9074H95.2106H98.3644H98.7894V39.4824V18.7632V18.3382H98.3644H94.4597H94.0347V18.7632V31.6819L82.6161 18.4851L82.489 18.3382H82.2947H79.1409H78.7159V18.7632V39.4824ZM55.8949 71.1955V71.6205H56.3199H60.2247H60.6497V71.1955V60.3729H70.9133V71.1955V71.6205H71.3383H75.2431H75.6681V71.1955V50.4763V50.0513H75.2431H71.3383H70.9133V50.4763V55.971H60.6497V50.4763V50.0513H60.2247H56.3199H55.8949V50.4763V71.1955ZM78.4225 71.1955V71.6205H78.8475H82.7523H83.1773V71.1955V50.4763V50.0513H82.7523H78.8475H78.4225V50.4763V71.1955ZM85.9317 71.1955V71.6205H86.3567H90.2615H90.6865V71.1955V64.9245L96.6759 64.3904L101.014 71.4187L101.138 71.6205H101.375H105.881H106.641L106.243 70.973L101.683 63.5489C104.589 62.4361 106.306 60.0881 106.306 57.284V50.4763V50.0513H105.881H86.3567H85.9317V50.4763V71.1955ZM108.753 71.1955V71.6205H109.178H113.083H113.508V71.1955V64.925L121.529 64.2192C126.192 63.821 129.127 60.966 129.127 57.284V50.4763V50.0513H128.702H109.178H108.753V50.4763V71.1955ZM98.4838 59.8206L90.6865 60.5191V54.4531H101.551V57.136C101.551 58.1104 101.165 58.723 100.617 59.124C100.048 59.541 99.2709 59.7501 98.4838 59.8206ZM121.305 59.8206L113.508 60.5191V54.4531H124.372V57.136C124.372 58.1104 123.986 58.723 123.438 59.124C122.869 59.541 122.092 59.7501 121.305 59.8206Z" fill="#074906" stroke="#074906" stroke-width="0.849999"/>
<path d="M56.0195 18.3382H55.5945V18.7632V29.8628C55.5945 32.8219 56.4031 35.4861 58.1241 37.4159C59.8519 39.3534 62.4541 40.4994 65.9317 40.4994C69.4093 40.4994 72.0114 39.3534 73.7393 37.4159C75.4603 35.4861 76.2689 32.8219 76.2689 29.8628V18.7632V18.3382H75.8439H71.9391H71.5141V18.7632V29.8628C71.5141 31.8906 71.0391 33.3998 70.14 34.3995C69.2482 35.3911 67.877 35.9495 65.9317 35.9495C64.1461 35.9495 62.767 35.3891 61.8312 34.3831C60.8916 33.3731 60.3493 31.8604 60.3493 29.8628V18.7632V18.3382H59.9243H56.0195ZM78.7159 39.4824V39.9074H79.1409H83.0457H83.4707V39.4824V26.5636L94.8892 39.7605L95.0163 39.9074H95.2106H98.3644H98.7894V39.4824V18.7632V18.3382H98.3644H94.4597H94.0347V18.7632V31.6819L82.6161 18.4851L82.489 18.3382H82.2947H79.1409H78.7159V18.7632V39.4824ZM55.8949 71.1955V71.6205H56.3199H60.2247H60.6497V71.1955V60.3729H70.9133V71.1955V71.6205H71.3383H75.2431H75.6681V71.1955V50.4763V50.0513H75.2431H71.3383H70.9133V50.4763V55.971H60.6497V50.4763V50.0513H60.2247H56.3199H55.8949V50.4763V71.1955ZM78.4225 71.1955V71.6205H78.8475H82.7523H83.1773V71.1955V50.4763V50.0513H82.7523H78.8475H78.4225V50.4763V71.1955ZM85.9317 71.1955V71.6205H86.3567H90.2615H90.6865V71.1955V64.9245L96.6759 64.3904L101.014 71.4187L101.138 71.6205H101.375H105.881H106.641L106.243 70.973L101.683 63.5489C104.589 62.4361 106.306 60.0881 106.306 57.284V50.4763V50.0513H105.881H86.3567H85.9317V50.4763V71.1955ZM108.753 71.1955V71.6205H109.178H113.083H113.508V71.1955V64.925L121.529 64.2192C126.192 63.821 129.127 60.966 129.127 57.284V50.4763V50.0513H128.702H109.178H108.753V50.4763V71.1955ZM98.4838 59.8206L90.6865 60.5191V54.4531H101.551V57.136C101.551 58.1104 101.165 58.723 100.617 59.124C100.048 59.541 99.2709 59.7501 98.4838 59.8206ZM121.305 59.8206L113.508 60.5191V54.4531H124.372V57.136C124.372 58.1104 123.986 58.723 123.438 59.124C122.869 59.541 122.092 59.7501 121.305 59.8206Z" fill="#074906" stroke="#074906" stroke-width="0.849999"/>
<path d="M56.0195 18.3382H55.5945V18.7632V29.8628C55.5945 32.8219 56.4031 35.4861 58.1241 37.4159C59.8519 39.3534 62.4541 40.4994 65.9317 40.4994C69.4093 40.4994 72.0114 39.3534 73.7393 37.4159C75.4603 35.4861 76.2689 32.8219 76.2689 29.8628V18.7632V18.3382H75.8439H71.9391H71.5141V18.7632V29.8628C71.5141 31.8906 71.0391 33.3998 70.14 34.3995C69.2482 35.3911 67.877 35.9495 65.9317 35.9495C64.1461 35.9495 62.767 35.3891 61.8312 34.3831C60.8916 33.3731 60.3493 31.8604 60.3493 29.8628V18.7632V18.3382H59.9243H56.0195ZM78.7159 39.4824V39.9074H79.1409H83.0457H83.4707V39.4824V26.5636L94.8892 39.7605L95.0163 39.9074H95.2106H98.3644H98.7894V39.4824V18.7632V18.3382H98.3644H94.4597H94.0347V18.7632V31.6819L82.6161 18.4851L82.489 18.3382H82.2947H79.1409H78.7159V18.7632V39.4824ZM55.8949 71.1955V71.6205H56.3199H60.2247H60.6497V71.1955V60.3729H70.9133V71.1955V71.6205H71.3383H75.2431H75.6681V71.1955V50.4763V50.0513H75.2431H71.3383H70.9133V50.4763V55.971H60.6497V50.4763V50.0513H60.2247H56.3199H55.8949V50.4763V71.1955ZM78.4225 71.1955V71.6205H78.8475H82.7523H83.1773V71.1955V50.4763V50.0513H82.7523H78.8475H78.4225V50.4763V71.1955ZM85.9317 71.1955V71.6205H86.3567H90.2615H90.6865V71.1955V64.9245L96.6759 64.3904L101.014 71.4187L101.138 71.6205H101.375H105.881H106.641L106.243 70.973L101.683 63.5489C104.589 62.4361 106.306 60.0881 106.306 57.284V50.4763V50.0513H105.881H86.3567H85.9317V50.4763V71.1955ZM108.753 71.1955V71.6205H109.178H113.083H113.508V71.1955V64.925L121.529 64.2192C126.192 63.821 129.127 60.966 129.127 57.284V50.4763V50.0513H128.702H109.178H108.753V50.4763V71.1955ZM98.4838 59.8206L90.6865 60.5191V54.4531H101.551V57.136C101.551 58.1104 101.165 58.723 100.617 59.124C100.048 59.541 99.2709 59.7501 98.4838 59.8206ZM121.305 59.8206L113.508 60.5191V54.4531H124.372V57.136C124.372 58.1104 123.986 58.723 123.438 59.124C122.869 59.541 122.092 59.7501 121.305 59.8206Z" fill="#074906" stroke="#074906" stroke-width="0.849999"/>
<path d="M56.0195 18.3382H55.5945V18.7632V29.8356C55.5945 32.7879 56.4033 35.4461 58.1244 37.3714C59.8524 39.3043 62.4545 40.4473 65.9317 40.4473C69.4089 40.4473 72.011 39.3043 73.739 37.3714C75.4601 35.4461 76.2689 32.7879 76.2689 29.8356V18.7632V18.3382H75.8439H71.9391H71.5141V18.7632V29.8356C71.5141 31.8581 71.0392 33.3632 70.1403 34.3602C69.2486 35.3493 67.8773 35.9065 65.9317 35.9065C64.1458 35.9065 62.7666 35.3473 61.8309 34.3439C60.8915 33.3365 60.3493 31.8279 60.3493 29.8356V18.7632V18.3382H59.9243H56.0195ZM78.7159 39.4318V39.8568H79.1409H83.0457H83.4707V39.4318V26.5453L94.8895 39.7102L95.0166 39.8568H95.2106H98.3644H98.7894V39.4318V18.7632V18.3382H98.3644H94.4597H94.0347V18.7632V31.6497L82.6158 18.4847L82.4887 18.3382H82.2947H79.1409H78.7159V18.7632V39.4318ZM55.8949 71.0674V71.4924H56.3199H60.2247H60.6497V71.0674V60.2723H70.9133V71.0674V71.4924H71.3383H75.2431H75.6681V71.0674V50.3988V49.9738H75.2431H71.3383H70.9133V50.3988V55.8791H60.6497V50.3988V49.9738H60.2247H56.3199H55.8949V50.3988V71.0674ZM78.4225 71.0674V71.4924H78.8475H82.7523H83.1773V71.0674V50.3988V49.9738H82.7523H78.8475H78.4225V50.3988V71.0674ZM85.9317 71.0674V71.4924H86.3567H90.2615H90.6865V71.0674V64.8128L96.6762 64.2799L101.014 71.291L101.138 71.4924H101.375H105.881H106.641L106.243 70.8445L101.684 63.4401C104.589 62.3301 106.306 59.9879 106.306 57.1899V50.3988V49.9738H105.881H86.3567H85.9317V50.3988V71.0674ZM108.753 71.0674V71.4924H109.178H113.083H113.508V71.0674V64.8132L121.529 64.1092C126.191 63.712 129.127 60.8643 129.127 57.1899V50.3988V49.9738H128.702H109.178H108.753V50.3988V71.0674ZM98.4838 59.7192L90.6865 60.416V54.367H101.551V57.0423C101.551 58.0135 101.165 58.6243 100.618 59.0243C100.048 59.4403 99.2711 59.6489 98.4838 59.7192ZM121.305 59.7192L113.508 60.416V54.367H124.372V57.0423C124.372 58.0135 123.986 58.6243 123.439 59.0243C122.869 59.4403 122.092 59.6489 121.305 59.7192Z" fill="#074906" stroke="#074906" stroke-width="0.849999"/>
<path d="M56.0195 18.3382H55.5945V18.7632V29.8628C55.5945 32.8219 56.4031 35.4861 58.1241 37.4159C59.8519 39.3534 62.4541 40.4994 65.9317 40.4994C69.4093 40.4994 72.0114 39.3534 73.7393 37.4159C75.4603 35.4861 76.2689 32.8219 76.2689 29.8628V18.7632V18.3382H75.8439H71.9391H71.5141V18.7632V29.8628C71.5141 31.8906 71.0391 33.3998 70.14 34.3995C69.2482 35.3911 67.877 35.9495 65.9317 35.9495C64.1461 35.9495 62.767 35.3891 61.8312 34.3831C60.8916 33.3731 60.3493 31.8604 60.3493 29.8628V18.7632V18.3382H59.9243H56.0195ZM78.7159 39.4824V39.9074H79.1409H83.0457H83.4707V39.4824V26.5636L94.8892 39.7605L95.0163 39.9074H95.2106H98.3645H98.7895V39.4824V18.7632V18.3382H98.3645H94.4597H94.0347V18.7632V31.6819L82.6161 18.4851L82.489 18.3382H82.2947H79.1409H78.7159V18.7632V39.4824ZM78.4225 71.1955V71.6205H78.8475H82.7523H83.1773V71.1955V50.4763V50.0513H82.7523H78.8475H78.4225V50.4763V71.1955ZM85.9317 71.1955V71.6205H86.3567H90.2615H90.6865V71.1955V64.9245L96.6759 64.3904L101.014 71.4187L101.138 71.6205H101.375H105.881H106.641L106.243 70.973L101.683 63.5489C104.589 62.4361 106.306 60.0881 106.306 57.284V50.4763V50.0513H105.881H86.3567H85.9317V50.4763V71.1955ZM108.753 71.1955V71.6205H109.178H113.083H113.508V71.1955V64.925L121.529 64.2192C126.192 63.821 129.127 60.966 129.127 57.284V50.4763V50.0513H128.702H109.178H108.753V50.4763V71.1955ZM98.4838 59.8206L90.6865 60.5191V54.4531H101.551V57.136C101.551 58.1104 101.165 58.723 100.617 59.124C100.048 59.541 99.2709 59.7501 98.4838 59.8206ZM121.305 59.8206L113.508 60.5191V54.4531H124.372V57.136C124.372 58.1104 123.986 58.723 123.438 59.124C122.869 59.541 122.092 59.7501 121.305 59.8206Z" fill="#228B22" stroke="#228B22" stroke-width="0.849999"/>
<path d="M55.5945 72V72.425H56.0195H59.9243H60.3493V72V61.1774H70.613V72V72.425H71.038H74.9428H75.3678V72V51.2808V50.8558H74.9428H71.038H70.613V51.2808V56.7755H60.3493V51.2808V50.8558H59.9243H56.0195H55.5945V51.2808V72Z" fill="#228B22" stroke="#228B22" stroke-width="0.849999"/>
</svg>
